<?xml version="1.0" standalone="no"?>
<!DOCTYPE svg PUBLIC "-//W3C//DTD SVG 20010904//EN"
 "http://www.w3.org/TR/2001/REC-SVG-20010904/DTD/svg10.dtd">
<svg version="1.0" xmlns="http://www.w3.org/2000/svg"
 width="1000.000000pt" height="1000.000000pt" viewBox="0 0 1000.000000 1000.000000"
 preserveAspectRatio="xMidYMid meet">

<g transform="translate(0.000000,1000.000000) scale(0.100000,-0.100000)"
fill="#000000" stroke="none">
<path d="M5272 7365 c-11 -14 -24 -25 -28 -25 -5 -1 -21 -11 -35 -23 -14 -12
-62 -52 -107 -88 -45 -37 -78 -70 -74 -74 4 -5 2 -5 -4 -2 -13 7 -114 -79
-114 -97 1 -6 30 -33 65 -61 36 -27 65 -53 65 -57 0 -5 6 -8 14 -8 8 0 17 -7
20 -16 3 -8 10 -12 16 -9 5 3 10 2 10 -4 0 -5 30 -33 68 -62 65 -52 84 -67
120 -100 9 -9 53 -44 97 -79 44 -34 82 -66 85 -69 3 -4 50 -43 105 -86 55 -43
105 -84 110 -90 9 -10 156 -130 398 -322 49 -40 94 -73 99 -73 5 0 6 -4 3 -10
-3 -5 -2 -10 3 -10 5 0 24 -13 43 -29 19 -16 36 -29 39 -29 3 0 21 -15 41 -33
19 -19 50 -45 68 -59 18 -14 40 -32 49 -41 10 -8 51 -42 92 -74 41 -32 80 -63
85 -69 18 -20 115 -98 115 -92 0 3 10 -5 23 -17 87 -82 230 -197 245 -197 8 0
11 98 12 329 l0 330 -25 25 c-14 14 -30 26 -35 26 -6 0 -10 3 -10 8 0 9 -155
132 -168 132 -5 0 -16 8 -23 17 -12 14 -12 16 0 8 10 -5 12 -4 7 3 -4 7 -13
12 -21 12 -7 0 -16 7 -19 16 -4 9 -9 15 -11 12 -3 -3 -24 13 -48 34 -23 22
-63 54 -89 71 -27 16 -48 34 -48 38 0 4 -42 40 -92 80 -51 40 -97 78 -103 85
-5 6 -46 40 -90 74 -44 34 -82 65 -85 69 -12 15 -250 201 -254 199 -2 -2 -14
9 -26 25 -12 15 -28 27 -36 27 -8 0 -13 4 -9 9 3 5 -4 12 -15 16 -11 3 -46 31
-77 61 -31 29 -58 52 -61 50 -2 -3 -18 10 -35 28 -43 43 -127 109 -127 99 0
-4 -7 3 -16 15 -8 12 -22 22 -30 22 -8 0 -14 5 -14 10 0 6 -15 19 -32 30 -18
11 -29 20 -25 20 5 0 -5 11 -21 25 -17 14 -39 25 -50 25 -11 0 -29 -11 -40
-25z"/>
<path d="M4298 7232 c-7 -10 -21 -21 -31 -25 -10 -4 -15 -11 -12 -17 3 -5 -1
-10 -9 -10 -9 0 -21 -9 -28 -20 -7 -11 -17 -20 -22 -20 -14 0 -156 -117 -149
-124 3 -3 2 -6 -4 -6 -11 0 -155 -110 -186 -142 -10 -10 -23 -18 -29 -18 -6 0
-8 -3 -5 -7 9 -8 -13 -34 -23 -28 -4 2 -29 -16 -55 -41 -26 -25 -44 -40 -40
-32 3 7 -4 2 -17 -12 -13 -14 -25 -25 -28 -25 -13 0 -49 -33 -43 -38 3 -4 0
-7 -7 -7 -11 0 -93 -60 -110 -80 -3 -4 -51 -44 -108 -90 -57 -45 -120 -98
-139 -116 -20 -19 -38 -34 -40 -34 -12 0 -61 -45 -57 -52 3 -5 2 -8 -3 -7 -15
4 -43 -13 -37 -22 3 -5 -1 -9 -9 -9 -8 0 -22 -8 -31 -19 -15 -16 -17 -46 -17
-236 l0 -218 32 -29 c17 -16 74 -63 128 -105 53 -42 100 -82 104 -90 4 -7 15
-13 22 -13 8 0 15 -4 15 -9 0 -4 33 -33 73 -64 39 -31 81 -64 92 -74 11 -10
65 -55 120 -98 55 -44 102 -83 105 -86 3 -3 43 -37 90 -75 47 -37 90 -73 97
-79 6 -5 26 -21 44 -35 19 -14 49 -39 69 -56 19 -17 69 -58 112 -91 79 -62 85
-68 129 -106 14 -12 60 -49 102 -82 42 -33 77 -63 77 -67 0 -5 7 -8 15 -8 8 0
15 -4 15 -8 0 -5 37 -37 81 -72 45 -34 89 -71 98 -81 8 -11 21 -19 28 -19 7 0
13 -3 13 -8 0 -4 32 -32 70 -62 39 -30 70 -58 70 -62 0 -5 5 -8 11 -8 7 0 17
-6 23 -14 6 -7 56 -49 111 -92 55 -43 102 -82 105 -85 3 -4 43 -37 90 -74 47
-37 87 -70 90 -74 3 -4 34 -29 70 -56 36 -27 67 -52 70 -56 7 -8 111 -93 128
-103 13 -8 139 81 155 110 4 8 12 14 17 14 6 0 18 8 28 18 10 9 31 27 45 39
27 23 27 25 27 148 0 136 3 129 -73 188 -15 12 -44 37 -65 54 -20 18 -40 33
-44 33 -3 0 -19 12 -35 28 -16 15 -42 38 -59 52 -123 103 -184 150 -184 143 0
-4 -7 2 -15 14 -8 12 -44 43 -80 69 -36 26 -65 52 -65 58 0 5 -3 6 -6 3 -4 -3
-15 5 -26 18 -11 14 -24 23 -29 20 -5 -4 -9 -2 -9 3 0 6 -30 34 -67 63 -38 29
-72 58 -76 66 -4 7 -15 13 -22 13 -8 0 -15 4 -15 9 0 5 -24 27 -54 49 -30 23
-67 53 -83 66 -73 66 -150 126 -160 126 -5 0 -14 9 -21 20 -7 11 -19 20 -26
20 -8 0 -18 5 -22 12 -5 7 -3 8 6 3 9 -5 11 -4 6 3 -4 7 -14 12 -22 12 -8 0
-14 4 -14 8 0 5 -35 36 -77 69 -43 34 -93 75 -112 92 -19 17 -39 28 -45 24 -6
-3 -8 -3 -4 2 6 6 -87 89 -101 90 -2 0 -26 21 -54 48 -27 26 -52 46 -54 44 -2
-2 -20 12 -41 32 -21 20 -53 47 -71 61 -18 14 -39 31 -47 38 -8 7 -14 10 -14
6 0 -4 -9 5 -21 19 -11 15 -23 26 -27 25 -4 -2 -20 11 -37 27 -36 36 -121 107
-128 107 -3 0 -29 21 -57 46 l-51 47 29 25 c63 55 134 115 216 179 47 38 82
71 79 75 -4 3 -1 6 5 6 10 0 143 100 184 139 28 27 49 44 125 102 40 31 69 60
65 64 -4 5 15 -8 42 -28 27 -20 53 -37 58 -37 5 0 6 -4 3 -10 -3 -5 -2 -10 4
-10 5 0 16 -6 23 -13 7 -7 58 -49 113 -92 55 -44 105 -85 110 -91 6 -6 44 -37
85 -69 41 -32 80 -63 85 -70 6 -6 55 -47 110 -90 55 -44 105 -84 110 -91 6 -6
44 -37 85 -69 41 -32 82 -66 91 -74 9 -9 32 -28 50 -42 19 -15 134 -108 256
-208 122 -100 227 -181 233 -181 5 0 10 -4 10 -10 0 -5 7 -10 15 -10 13 0 15
42 15 318 0 174 -3 326 -6 337 -3 11 -45 50 -92 87 -48 37 -107 85 -132 107
-24 22 -45 39 -47 37 -2 -1 -26 19 -55 46 -29 26 -55 48 -59 48 -4 0 -28 20
-55 45 -26 25 -49 43 -51 41 -2 -2 -16 8 -31 23 -49 46 -104 91 -112 91 -4 0
-11 7 -14 16 -4 9 -9 14 -13 11 -3 -4 -15 5 -25 19 -11 14 -22 23 -25 21 -2
-3 -16 7 -31 22 -15 14 -45 40 -66 56 -21 17 -47 39 -57 49 -11 11 -19 17 -19
14 0 -3 -19 13 -42 34 -24 22 -63 52 -87 69 -24 16 -41 29 -36 29 5 0 -30 30
-76 66 -46 36 -89 72 -95 80 -6 8 -14 14 -17 14 -3 0 -17 10 -31 23 -48 45
-150 121 -142 107 4 -8 -4 0 -19 18 -30 37 -76 44 -97 14z"/>
<path d="M4363 6221 c-81 -64 -89 -71 -129 -108 -19 -17 -34 -28 -34 -25 0 4
-7 -2 -15 -12 -11 -15 -15 -48 -15 -130 0 -61 3 -120 6 -131 3 -11 26 -36 51
-55 26 -19 51 -40 57 -45 6 -6 31 -26 56 -45 25 -19 47 -37 50 -41 5 -6 102
-85 173 -142 16 -12 43 -35 60 -50 18 -16 62 -51 100 -80 37 -28 67 -55 67
-59 0 -4 7 -8 15 -8 8 0 15 -4 15 -8 0 -5 37 -37 81 -72 45 -34 89 -71 98 -81
8 -11 21 -19 28 -19 7 0 13 -3 13 -8 0 -4 35 -34 77 -67 42 -33 84 -67 93 -75
33 -32 120 -102 120 -97 0 3 13 -7 28 -21 32 -31 56 -51 167 -141 44 -36 82
-68 85 -71 3 -3 34 -28 70 -55 36 -28 72 -57 81 -65 21 -20 55 -48 109 -89 25
-19 53 -42 62 -50 25 -23 42 -37 121 -100 40 -32 84 -68 98 -82 15 -13 68 -55
117 -94 50 -38 93 -75 96 -82 3 -7 -18 -31 -47 -54 -29 -24 -66 -57 -84 -75
-17 -18 -33 -30 -36 -28 -3 3 -15 -8 -27 -23 -12 -15 -25 -28 -28 -28 -8 0
-102 -67 -102 -72 0 -2 6 -1 13 2 6 4 3 -1 -7 -9 -11 -9 -26 -16 -34 -16 -7 0
-10 -5 -7 -10 3 -6 -4 -14 -17 -19 -13 -5 -42 -27 -65 -48 -24 -22 -45 -38
-48 -35 -2 3 -7 -3 -11 -12 -3 -9 -11 -16 -16 -16 -9 0 -40 -26 -105 -87 -13
-13 -28 -23 -32 -23 -5 0 -14 -7 -21 -15 -20 -24 -43 -18 -90 22 -24 21 -40
31 -35 23 5 -8 -12 6 -37 30 -26 25 -53 50 -60 55 -7 6 -83 67 -168 135 -85
69 -157 128 -158 132 -2 5 -8 6 -13 2 -5 -3 -9 -1 -9 5 0 6 -36 38 -80 72 -44
34 -80 66 -80 71 0 4 -5 8 -11 8 -7 0 -18 8 -26 18 -9 10 -12 11 -7 2 3 -8 -8
1 -25 20 -18 19 -29 28 -26 20 4 -8 -5 0 -20 17 -14 18 -31 33 -36 33 -5 0
-22 14 -39 31 -16 18 -30 28 -30 24 0 -4 -9 3 -21 16 -12 13 -25 23 -30 21 -5
-1 -9 2 -9 7 0 9 -107 97 -145 119 -11 6 -16 12 -11 12 5 0 -38 37 -95 82 -57
45 -106 84 -109 88 -15 21 -122 100 -135 100 -14 0 -15 -38 -13 -337 2 -266 6
-337 16 -341 7 -2 21 -12 30 -22 9 -9 56 -47 104 -83 47 -36 84 -68 81 -71 -4
-3 -1 -6 5 -6 6 0 26 -14 44 -31 18 -17 61 -51 96 -77 34 -25 62 -50 62 -55 0
-4 5 -5 10 -2 6 3 10 2 10 -4 0 -5 42 -42 93 -82 50 -40 97 -78 102 -85 6 -6
45 -39 88 -73 44 -34 85 -67 93 -74 28 -25 51 -44 129 -106 44 -35 82 -66 85
-70 11 -16 200 -161 209 -161 5 0 13 -5 17 -12 5 -7 2 -9 -7 -4 -8 4 -3 -1 11
-12 14 -12 26 -19 28 -18 1 2 25 -18 53 -43 28 -25 54 -46 57 -45 4 0 15 -10
25 -23 24 -30 59 -29 94 2 15 14 33 28 38 33 80 62 172 138 181 149 6 7 14 13
18 13 4 0 25 18 46 39 22 22 40 37 40 35 0 -2 24 14 53 37 28 23 51 46 50 50
-2 5 1 9 7 9 13 0 180 132 180 142 0 4 6 8 13 8 8 0 27 16 43 35 16 19 33 35
37 35 9 0 90 62 120 92 10 10 22 18 27 18 6 0 10 7 10 15 0 8 4 15 10 15 14 0
130 91 130 102 0 4 6 8 14 8 8 0 18 5 22 12 5 7 3 8 -6 3 -9 -5 -11 -4 -6 3 4
7 13 12 20 12 8 0 21 11 30 25 9 14 20 24 25 22 5 -1 18 9 30 23 13 14 19 18
15 10 -5 -8 9 -1 30 16 42 35 74 86 57 92 -6 2 -9 8 -5 13 3 5 6 93 6 195 l1
186 -34 31 c-68 61 -82 72 -74 57 4 -8 -6 1 -23 20 -17 19 -31 31 -32 25 0 -5
-7 1 -16 13 -8 12 -20 22 -26 22 -6 0 -23 13 -38 30 -31 35 -189 160 -202 160
-5 0 -6 5 -3 10 3 6 2 10 -4 10 -6 0 -18 8 -28 18 -30 31 -157 128 -177 135
-10 4 -16 10 -13 14 7 7 -187 163 -203 163 -6 0 -8 5 -5 10 3 6 -2 13 -12 17
-10 4 -22 12 -28 19 -19 23 -165 134 -177 134 -6 0 -8 3 -5 7 6 5 -34 41 -40
36 -1 -1 -17 12 -35 30 -55 53 -109 97 -119 97 -5 0 -9 5 -9 12 0 6 -3 8 -6 5
-4 -3 -16 5 -26 19 -11 14 -22 23 -25 20 -2 -2 -17 8 -31 23 -15 15 -72 63
-127 106 -55 44 -104 84 -110 91 -18 21 -167 134 -177 134 -5 0 -6 5 -3 10 3
6 -1 10 -9 10 -9 0 -16 4 -16 8 0 5 -37 37 -81 72 -45 34 -89 71 -98 81 -8 11
-21 19 -28 19 -7 0 -13 4 -13 9 0 4 -33 33 -72 64 -40 31 -82 64 -93 74 -11
10 -65 54 -120 98 -55 44 -104 85 -110 91 -12 14 -57 44 -66 44 -3 0 -33 -22
-66 -49z"/>
<path d="M3001 4310 l0 -330 25 -25 c14 -14 29 -25 34 -25 6 0 10 -3 10 -8 0
-4 35 -34 77 -67 42 -33 88 -70 102 -82 48 -42 55 -48 136 -112 44 -35 82 -66
85 -70 3 -3 50 -42 105 -85 55 -44 102 -82 105 -85 19 -22 101 -81 111 -81 7
0 10 -3 6 -6 -3 -3 38 -41 92 -84 53 -43 103 -85 110 -94 8 -9 17 -16 22 -16
4 0 25 -16 46 -35 21 -19 56 -48 78 -62 22 -15 49 -37 60 -48 11 -11 65 -56
120 -100 55 -44 105 -84 110 -91 6 -6 44 -37 85 -69 41 -33 91 -74 110 -92 19
-18 43 -33 53 -33 15 0 141 92 172 126 6 6 44 37 85 69 78 61 93 74 135 114
23 24 23 26 7 42 -9 9 -19 15 -21 13 -1 -1 -14 9 -28 24 -13 15 -22 20 -18 12
4 -8 -3 -3 -15 13 -12 15 -29 27 -38 27 -8 0 -12 3 -9 6 4 4 -40 43 -96 87
-56 44 -106 87 -110 94 -4 7 -14 13 -21 13 -8 0 -17 7 -20 16 -4 9 -9 15 -12
12 -3 -3 -17 6 -32 21 -15 14 -47 42 -70 61 -24 19 -53 44 -66 55 -12 11 -57
47 -99 80 -42 33 -77 63 -77 67 0 5 -7 8 -15 8 -8 0 -15 3 -15 8 0 4 -35 34
-77 67 -42 33 -84 67 -93 75 -8 8 -60 51 -115 95 -54 44 -113 92 -129 107 -16
15 -31 26 -33 24 -2 -2 -18 11 -36 28 -18 17 -49 45 -70 61 -21 17 -54 43 -72
58 -19 16 -36 28 -39 28 -3 0 -20 14 -38 32 -40 39 -166 141 -178 145 -5 2
-31 23 -56 48 -26 24 -49 43 -51 41 -2 -2 -22 14 -46 36 -23 21 -52 43 -65 48
-13 5 -20 13 -17 19 3 5 0 10 -8 10 -8 0 -18 7 -21 16 -4 9 -9 14 -13 11 -3
-4 -15 5 -25 19 -11 14 -23 23 -25 20 -3 -3 -14 6 -25 19 -11 14 -24 23 -28
20 -5 -3 -15 3 -22 15 -33 53 -36 26 -37 -310z"/>
</g>
</svg>
